<svg width="150" height="283" viewBox="0 0 150 283" fill="none" xmlns="http://www.w3.org/2000/svg">
<path d="M78.4308 216.723C73.5498 213.127 69.5551 205.704 69.5551 200.226V9.95281C69.5551 4.47817 64.2595 0 57.7852 0H42.6884C36.2142 0 30.9184 4.47806 30.9184 9.95281L30.9158 200.221C30.9158 205.7 26.7622 212.958 21.6883 216.358C21.6883 216.358 0 230.881 0 244.613C0 265.813 22.0615 283 49.2746 283C76.4832 283 98.5419 265.811 98.5419 244.613C98.5419 231.541 78.4308 216.723 78.4308 216.723Z" fill="white"/>
<path d="M64.6676 55.2868C64.6676 60.7614 59.3718 65.2396 52.8974 65.2396H47.7424C41.2681 65.2396 35.9722 60.7616 35.9722 55.2868L35.9695 14.2745C35.9695 8.79982 41.2653 4.32166 47.7398 4.32166H52.8948C59.3691 4.32166 64.665 8.79971 64.665 14.2745L64.6676 55.2868Z" fill="white"/>
<path d="M128.34 174.526C128.34 183.927 119.337 191.542 108.213 191.542C97.0903 191.542 88.0897 183.929 88.0897 174.526L107.942 143.894L128.34 174.526Z" fill="white"/>
<path d="M150 202.369C149.935 207.826 144.663 212.203 138.204 212.15C131.761 212.101 126.58 207.641 126.646 202.182L138.366 184.499L150 202.369Z" fill="white"/>
<path d="M145.761 158.716C145.727 161.968 142.58 164.579 138.737 164.545C134.896 164.514 131.801 161.855 131.843 158.606L138.836 148.062L145.761 158.716Z" fill="white"/>
<path d="M78.0105 252.497C77.6272 252.493 77.961 252.491 78.7511 252.491C79.5307 252.491 77.8333 256.512 74.9703 261.423L74.0368 263.021C71.1791 267.931 64.585 271.953 59.3885 271.953H49.9314H40.4823C35.2857 271.953 28.6915 267.931 25.8286 263.021L24.8952 261.423C22.0322 256.512 20.3426 252.491 21.1353 252.491C21.9332 252.491 27.8804 252.491 34.3552 252.495L66.9425 252.5C73.4115 252.5 78.3968 252.497 78.011 252.497H78.0105Z" fill="white"/>
<path d="M45.6501 248.185C38.1488 247.819 33.8594 245.773 30.0213 239.619C26.1832 233.459 26.6447 231.091 30.5167 223.888L30.754 223.912C39.7912 225.279 42.3384 226.335 46.1325 232.449C49.9836 238.599 49.543 242.755 45.6475 248.18" fill="white"/>
<path d="M54.4413 230.643C51.0985 230.482 49.1872 229.569 47.4791 226.828C45.7712 224.09 45.9746 223.031 47.7033 219.826L47.8024 219.832C51.8284 220.443 52.9653 220.917 54.6472 223.636C56.3577 226.372 56.1621 228.226 54.4282 230.643" fill="white"/>
<path d="M58.7529 248.185C55.3399 244.642 54.542 241.716 56.5471 237.001C58.5625 232.287 60.273 231.35 66.6768 229.59L66.7681 229.714C70.3036 234.434 70.8642 236.092 68.8826 240.762C66.8802 245.476 64.0486 247.288 58.7529 248.172" fill="white"/>
</svg>
